<?xml version="1.0" encoding="UTF-8" standalone="no"?>
<svg
   xmlns:dc="http://purl.org/dc/elements/1.1/"
   xmlns:cc="http://creativecommons.org/ns#"
   xmlns:rdf="http://www.w3.org/1999/02/22-rdf-syntax-ns#"
   xmlns:svg="http://www.w3.org/2000/svg"
   xmlns="http://www.w3.org/2000/svg"
   xmlns:sodipodi="http://sodipodi.sourceforge.net/DTD/sodipodi-0.dtd"
   xmlns:inkscape="http://www.inkscape.org/namespaces/inkscape"
   inkscape:version="1.0 (4035a4fb49, 2020-05-01)"
   sodipodi:docname="icon-eye.svg"
   version="1.1"
   class=""
   width="24.907999"
   viewBox="0 0 24.810702 22.817517"
   height="22.906998"
   enable-background="new 0 0 510 510"
   id="Capa_1">
  <metadata
     id="metadata92">
    <rdf:RDF>
      <cc:Work
         rdf:about="">
        <dc:format>image/svg+xml</dc:format>
        <dc:type
           rdf:resource="http://purl.org/dc/dcmitype/StillImage" />
        <dc:title></dc:title>
      </cc:Work>
    </rdf:RDF>
  </metadata>
  <defs
     id="defs90" />
  <sodipodi:namedview
     inkscape:current-layer="Capa_1"
     inkscape:window-maximized="1"
     inkscape:window-y="28"
     inkscape:window-x="0"
     inkscape:cy="243.45349"
     inkscape:cx="108.66952"
     inkscape:zoom="1.1054688"
     fit-margin-bottom="0"
     fit-margin-right="0"
     fit-margin-left="0"
     fit-margin-top="0"
     showgrid="false"
     id="namedview88"
     inkscape:window-height="1024"
     inkscape:window-width="1920"
     inkscape:pageshadow="2"
     inkscape:pageopacity="0"
     guidetolerance="10"
     gridtolerance="10"
     objecttolerance="10"
     borderopacity="1"
     bordercolor="#666666"
     pagecolor="#ffffff" />
  <g
     id="g85"
     transform="matrix(0.04864834,0,0,0.04474023,2.432417e-5,0)">
    <path
       id="path69"
       fill="#000000"
       class="active-path"
       data-original="#000000"
       d="M 506.597,245.486 C 460.244,189.012 362.107,123.107 255,123.107 c -107.491,0 -205.632,66.353 -251.597,122.379 -4.538,5.531 -4.538,13.497 0,19.028 47.452,57.84 145.819,122.38 251.597,122.38 109.537,0 207.256,-68.357 251.597,-122.379 4.538,-5.532 4.538,-13.498 0,-19.029 z M 356.893,255 c 0,56.184 -45.709,101.894 -101.894,101.894 -56.186,0 -101.894,-45.713 -101.894,-101.894 0,-56.184 45.709,-101.894 101.894,-101.894 56.19,0.001 101.894,45.716 101.894,101.894 z M 35.262,255.004 C 52.145,237.457 92.853,199.588 149.998,175.283 114.136,222.405 114.122,287.556 149.981,334.695 106.532,316.28 66.17,287.186 35.262,255.004 Z m 324.74,79.713 c 35.862,-47.123 35.875,-112.273 0.017,-159.412 43.447,18.415 83.81,47.51 114.719,79.69 -16.883,17.549 -57.591,55.416 -114.736,79.722 z" />
    <path
       id="path71"
       fill="#000000"
       class="active-path"
       data-original="#000000"
       d="m 204,255 c 0,28.122 22.878,51 51,51 28.121,0 51,-22.878 51,-51 0,-28.122 -22.879,-51 -51,-51 -28.122,0 -51,22.878 -51,51 z m 72,0 c 0,11.58 -9.421,21 -21,21 -11.58,0 -21,-9.42 -21,-21 0,-11.58 9.42,-21 21,-21 11.579,0 21,9.42 21,21 z" />
    <path
       id="path73"
       fill="#000000"
       class="active-path"
       data-original="#000000"
       d="m 255,65 c 8.284,0 15,-6.716 15,-15 V 15 C 270,6.716 263.284,0 255,0 246.716,0 240,6.716 240,15 v 35 c 0,8.284 6.716,15 15,15 z" />
    <path
       id="path75"
       fill="#000000"
       class="active-path"
       data-original="#000000"
       d="m 344.5,85.062 c 7.192,4.102 16.355,1.601 20.461,-5.599 l 19.962,-35 c 4.104,-7.196 1.599,-16.356 -5.598,-20.461 -7.198,-4.104 -16.356,-1.599 -20.461,5.599 l -19.962,35 c -4.104,7.195 -1.598,16.356 5.598,20.461 z" />
    <path
       id="path77"
       fill="#000000"
       class="active-path"
       data-original="#000000"
       d="m 145.039,79.463 c 4.104,7.196 13.264,9.702 20.461,5.598 7.196,-4.104 9.702,-13.265 5.598,-20.461 l -19.962,-35 c -4.104,-7.196 -13.266,-9.702 -20.461,-5.598 -7.196,4.104 -9.702,13.265 -5.598,20.461 z" />
    <path
       id="path79"
       fill="#000000"
       class="active-path"
       data-original="#000000"
       d="m 255,445 c -8.284,0 -15,6.716 -15,15 v 35 c 0,8.284 6.716,15 15,15 8.284,0 15,-6.716 15,-15 v -35 c 0,-8.284 -6.716,-15 -15,-15 z" />
    <path
       id="path81"
       fill="#000000"
       class="active-path"
       data-original="#000000"
       d="m 165.5,424.939 c -7.196,-4.103 -16.356,-1.598 -20.461,5.598 l -19.962,35 c -4.104,7.196 -1.598,16.357 5.598,20.461 7.197,4.104 16.357,1.597 20.461,-5.598 l 19.962,-35 c 4.105,-7.196 1.598,-16.357 -5.598,-20.461 z" />
    <path
       id="path83"
       fill="#000000"
       class="active-path"
       data-original="#000000"
       d="m 364.961,430.537 c -4.104,-7.197 -13.267,-9.701 -20.461,-5.599 -7.196,4.104 -9.702,13.265 -5.598,20.461 l 19.962,35 c 4.103,7.196 13.263,9.703 20.461,5.599 7.196,-4.104 9.702,-13.265 5.598,-20.461 z" />
  </g>
</svg>
